<svg xmlns="http://www.w3.org/2000/svg" viewBox="0 0 52.33 52.33"><defs><style>.cls-1{fill:#fff;}.cls-2{fill:none;stroke:#fff;stroke-miterlimit:10;}</style></defs><title>Aktiv 6</title><g id="Lag_2" data-name="Lag 2"><g id="Lag_6" data-name="Lag 6"><path class="cls-1" d="M29.05,17.47a9,9,0,0,1-1.76-3.27A3.94,3.94,0,0,1,27,12.39a2.77,2.77,0,0,1,2.52-2.12c.47,0,.48-.79,0-.75-5,.4-3.13,5.93-1,8.48.31.37.84-.17.53-.53Z"/><path class="cls-1" d="M29.82,10.25c4.63,1.24,4.23,12.67-1.42,12.11-.48,0-.47.71,0,.75,3.33.33,5.11-2.78,5.19-5.75S33.37,10.43,30,9.53a.37.37,0,0,0-.2.72Z"/><path class="cls-1" d="M28.65,22.21q2.1-1.08,3.48,1.15l1.51,1.82a14.41,14.41,0,0,1,2.12,6.09c.45,3,.4,3.84-1.32,6.51-2,3.12-3.93,4.76-8,4.93a.38.38,0,0,0,0,.75c3.5-.14,8-2.21,9.71-5.51,1.55-3,.55-8.05-.73-11-.73-1.71-4.23-7.41-6.93-6.16-1,.44-1.19,1.26-.37,2,.36.32.89-.21.53-.53Z"/><path class="cls-1" d="M26.23,42.72C19,41.8,13,36.84,15.55,28.77c1.47-4.56,5.55-5,8-8.16s3.53-9.77-.79-11.7c-.44-.19-.82.45-.38.65,2.36,1,2.57,5.09,2,7.14a6.9,6.9,0,0,1-3.15,4.79,21.44,21.44,0,0,0-3.7,2.56,11.55,11.55,0,0,0-3.27,8.84c.39,7.43,5.28,9.74,11.9,10.58.48.06.47-.69,0-.75Z"/><path class="cls-1" d="M22,8.88c-10.24,2.64,15.62,24.88,1.76,30.91-.45.2-.06.84.37.65,4.05-1.76,5.17-4.8,4.35-9a28.29,28.29,0,0,0-3.11-8C24,20.94,16.66,11,22.2,9.6a.37.37,0,0,0-.2-.72Z"/><path class="cls-1" d="M23.7,39.81c-2.25.36-4.18-2.64-4.58-4.47-.43-2-.39-4.59,1.65-5.7.43-.23.05-.88-.37-.65-4.51,2.45-1.74,12.39,3.5,11.54.48-.07.28-.8-.2-.72Z"/><path class="cls-1" d="M27.48,22a1.14,1.14,0,0,0,.67,1c.44.21.82-.44.38-.64-.15-.08-.28-.16-.3-.35,0-.48-.78-.48-.75,0Z"/><circle class="cls-2" cx="26.17" cy="26.17" r="25.67"/></g></g></svg>