<svg xmlns="http://www.w3.org/2000/svg" viewBox="0 0 176.29 132.14"><title>Signatur</title><g id="Lag_2" data-name="Lag 2"><g id="Lag_2-2" data-name="Lag 2"><path d="M76.7,35.59,95.12,17c2.94-3,6-5.88,8.86-9,1.38-1.51,3.09-3.29,3.13-5.48.07-3.06-2.7-3-4.7-1.51-2.34,1.81-3.67,5.13-5.14,7.61Q94,14.08,90.94,19.67A363.9,363.9,0,0,0,71.2,61.82C68.12,69.66,65.87,78,61.33,85.13a217.81,217.81,0,0,1-13.12,18.26,100.62,100.62,0,0,1-16.93,17.33c-7.27,5.62-18.77,13-28,8.41-.86-.43-1.62.87-.75,1.3,13.07,6.53,29.32-7.14,37.92-15.86A156,156,0,0,0,55.6,96c5-7,9.65-13.82,12.63-22A388.2,388.2,0,0,1,92.67,19.63Q96.2,13.26,100,7c.63-1,1.27-2.07,1.91-3.11,3.49,0,3.85,1,1,3-1.72,1.91-3.64,3.68-5.46,5.51L75.64,34.53c-.68.69.38,1.75,1.06,1.06Z"></path><path d="M3.38,129.06c-4.92-6.46,1.21-15.13,4.69-20.87A117,117,0,0,1,20.5,91.27c9.39-10.56,20.4-19.55,31.15-28.66C63.05,53,74.55,43.37,86.71,34.67c9.72-7,20.55-12.85,27.64-22.76.57-.79-.74-1.54-1.29-.76-8.74,12.21-23.65,19.4-35.4,28.36C65.47,48.79,53.81,58.75,42.17,68.7c-10.9,9.32-21.66,19-30.08,30.67-5,7-16.86,21.44-10,30.45.58.75,1.89,0,1.3-.76Z"></path><path d="M112.13,9.83c-7.95,10-13.43,22.28-19.61,33.45L71.7,80.87c-.47.85.83,1.61,1.29.76q9.95-17.94,19.87-35.89c6.42-11.59,12.08-24.44,20.34-34.85.59-.75-.47-1.82-1.07-1.06Z"></path><path d="M73.25,81.74c.12-5.88,0-11.85.41-17.73.53-7,4.59-12.5,10.39-16.28,1.84-1.19,5.39-3.65,7.55-3.63q1.56-.69,2.82,1.17,3,.46,2.31,3.09c.5,1.72-.29,4.2-.6,5.86C94.89,60.84,91.94,67,89.05,73c-.41.86.88,1.62,1.3.75,2.83-5.91,16.61-37.46-1-30.44-6.11,2.43-12,6.67-15,12.63-3.84,7.51-2.35,17.64-2.52,25.78a.75.75,0,0,0,1.5,0Z"></path><path d="M106.71,35.19a.75.75,0,0,0,0-1.5.75.75,0,0,0,0,1.5Z"></path><path d="M105.8,49.54C103,54.8,100,60,97.46,65.39c-.84,1.81-1.51,5,1.23,5.66,2.56.61,5.74-3.34,7.29-4.77A109,109,0,0,0,117.33,54c.59-.75-.46-1.82-1.06-1.06-2,2.55-4.14,5-6.39,7.39-2,2.12-4.5,5.26-7,6.76q-1.74,2.19-4.6.29l.74-1.7c.91-1.89,2-3.73,3-5.59l5.16-9.79c.45-.85-.84-1.61-1.29-.76Z"></path><path d="M116.26,52.5c-2.32,3.18-5.07,6.3-7,9.75a6.82,6.82,0,0,0-.34,6.87c.46.85,1.76.09,1.3-.76-1.74-3.23.76-6.12,2.56-8.59,1.58-2.18,3.17-4.34,4.75-6.52.57-.78-.73-1.53-1.29-.75Z"></path><path d="M110.68,69.61c10.75-8,18-20.14,25.78-30.79A216.32,216.32,0,0,1,150.89,21q3.59-4,7.38-7.75c2.48-2.47,8.26-9.67,12.13-9,.95.16,1.35-1.29.4-1.45-5.39-.93-10.22,6-13.59,9.39a209.91,209.91,0,0,0-16,18c-10,12.62-18.09,28.39-31.25,38.14-.77.57,0,1.87.76,1.3Z"></path><path d="M170.18,3.84c-6.92,10.87-14.63,21.59-18.86,33.88-.32.92,1.13,1.31,1.44.4C157,26,164.63,15.35,171.48,4.59c.52-.81-.78-1.57-1.3-.75Z"></path><path d="M152.37,38.56c2-3.91,5.83-6.24,9.49-8.46,1.91-1.15,4.18-2.73,6.42-3.05q3-1.17,5.69,1.52a10.54,10.54,0,0,0,0,2.86c0,1,1.55,1,1.5,0-.1-1.91.63-4.68-1.3-6s-5.78-.07-7.62.6c-5.61,2.06-12.64,6.27-15.44,11.74-.44.86.86,1.62,1.3.76Z"></path><path d="M172.71,35.94c-2.67,7.59-5.17,15.08-10.88,21-5.27,5.47-12.15,8.94-19.82,8.87a.75.75,0,0,0,0,1.5,28.24,28.24,0,0,0,19.65-8.09c6.66-6.26,9.53-14.47,12.49-22.88.33-.92-1.12-1.31-1.44-.4Z"></path><path d="M174.36,31.24l-1.65,4.7c-.32.91,1.13,1.3,1.44.4l1.66-4.7c.32-.92-1.13-1.31-1.45-.4Z"></path><path d="M142.25,65.57C132,59.9,140.68,46,144.62,39c3.81-6.75,7.94-13.22,10.34-20.64.29-.92-1.15-1.31-1.45-.4-3.52,10.92-10.86,20-15.37,30.51-2.73,6.36-3.65,14.56,3.36,18.44.84.46,1.6-.83.75-1.3Z"></path><path d="M96.7,102.47c-3.07,3.19-4.4,7.39-6,11.42-1.91,4.71-3.73,9.27-3.9,14.41,0,1,1.47,1,1.5,0,.14-4.51,1.62-8.48,3.27-12.6s3-8.84,6.23-12.17c.67-.69-.39-1.75-1.06-1.06Z"></path><path d="M88,129.38c5.8-4,9-10.62,12.56-16.48q6.9-11.27,13.73-22.55,13.92-23,27.56-46.19a.75.75,0,0,0-1.3-.75Q127.91,64.89,115,86.24q-6.31,10.47-12.69,20.9c-4.23,6.92-8.25,16.24-15.08,21-.79.54,0,1.84.75,1.29Z"></path><path d="M113.79,12.67c.47-.67,1-1.32,1.42-2a1.64,1.64,0,0,0,.12-1.89,1.39,1.39,0,0,0-1.73-.39c-.64.28-.89.89-1.39,1.33-.73.64.34,1.69,1.06,1.06A7.77,7.77,0,0,0,114,10a2.57,2.57,0,0,1,.27-.21c.12,0,.06-.06-.16-.13a1,1,0,0,1-.11.21c-.55.63-1,1.4-1.48,2.08s.74,1.54,1.3.76Z"></path><path d="M174,28c.38,1.4.79,2.9,0,4.24a.75.75,0,0,0,1.3.76c1-1.72.63-3.58.13-5.4A.75.75,0,0,0,174,28Z"></path><path d="M173,27.63a6.4,6.4,0,0,1,.63,5.75c-.32.91,1.13,1.3,1.45.4a7.92,7.92,0,0,0-.78-6.91c-.51-.82-1.81-.06-1.3.76Z"></path><path d="M173.5,26.73c2.26,1.21,1.16,4.43.34,6.18-.4.87.89,1.63,1.3.76,1.17-2.52,2.2-6.59-.88-8.23-.85-.45-1.61.84-.76,1.29Z"></path><path d="M138.5,64.45c1,1.43,2.22,2.88,4,3.24,2.12.42,4.66-.63,6.62-1.31.91-.31.52-1.76-.4-1.45A21,21,0,0,1,144,66.2c-2,.2-3.15-1-4.23-2.51-.55-.79-1.85,0-1.3.76Z"></path><path d="M140.23,66.16a12.15,12.15,0,0,0,7.92.4.75.75,0,0,0-.4-1.45,10.77,10.77,0,0,1-6.76-.25c-.87-.41-1.63.88-.76,1.3Z"></path><path d="M109.8,69.82a.75.75,0,0,0,0-1.5.75.75,0,0,0,0,1.5Z"></path><path d="M71.84,78.49l-.42,3.73c-.08.7.84.91,1.28.53a2.42,2.42,0,0,0,.73-1.38,3.4,3.4,0,0,1,.4-1.52c.63-.73-.42-1.79-1.06-1.06a2.92,2.92,0,0,0-.66,1.45c-.09.5-.07,1.1-.47,1.45l1.28.53.42-3.73c.11-1-1.39-.95-1.5,0Z"></path></g></g></svg>