<svg xmlns="http://www.w3.org/2000/svg" viewBox="0 0 194.29 122.36"><title>signatur_sort</title><g id="Lag_2" data-name="Lag 2"><g id="Lag_2-2" data-name="Lag 2"><path class="streger" d="M94.74,28.38l22.14-14c3.54-2.24,7.19-4.38,10.66-6.74,1.46-1,3.16-2.09,4-3.76C133,.79,130.72-.78,127.8.39c-2.28.9-4,3.31-5.65,5q-4.43,4.56-8.7,9.29A363.79,363.79,0,0,0,84.54,51.16c-4.79,6.91-8.85,14.69-14.69,20.77A187,187,0,0,1,53.45,86.6c-6.81,5.58-14.08,10.8-22.11,14.47-8.25,3.77-21.28,8.54-29.21,1.9-.73-.62-1.8.44-1.06,1.06,11.18,9.37,30.18-.34,40.44-6.83,13.73-8.69,27.93-20.26,36.78-34a372,372,0,0,1,35.61-46.8Q118.76,11,123.84,5.8l2.55-2.59c2.94,1.07,3.07,2.12.39,3.13-2.13,1.46-4.38,2.77-6.56,4.15L94,27.08c-.81.52-.06,1.82.76,1.3Z"></path><path class="streger" d="M2.19,102.76c-3.48-7.92,6.17-16,11.19-21a117.07,117.07,0,0,1,17-13.84c11.25-7.56,23.5-13.55,35.53-19.74C78.92,41.51,92,35,105.56,29.37c10.78-4.44,22.28-7.72,31.2-15.58.73-.64-.34-1.7-1.06-1.06-10.91,9.62-26.27,13.15-39.34,19-14.5,6.46-28.6,13.81-42.68,21.14C41,59.46,28.29,66.43,17.45,75.93,10.72,81.84-3.74,93,.9,103.51c.39.88,1.68.12,1.29-.75Z"></path><path class="streger" d="M135,11.35c-10.2,8.14-18.45,19.12-27.15,28.78L79.7,71.34c-.65.72.41,1.78,1.06,1.06l28.1-31.21c8.7-9.66,17-20.64,27.15-28.77.76-.61-.31-1.66-1.06-1.07Z"></path><path class="streger" d="M81,72.59c1.5-5.93,2.64-12.13,4.63-17.91C87.91,48,93.35,43.85,99.85,41.61a25.54,25.54,0,0,1,8-1.64c6,0,2.86,8.15,1.47,11.23-2.71,6-6.89,11.27-11,16.4-.59.74.46,1.81,1.06,1.06,3.52-4.41,24-31.56,7.23-30.09-6.89.6-14.32,3.72-18.84,9.08-5.43,6.43-6.28,16.66-8.28,24.54a.75.75,0,0,0,1.45.4Z"></path><path class="streger" d="M124.26,34.76a.75.75,0,0,0,0-1.5.75.75,0,0,0,0,1.5Z"></path><path class="streger" d="M120,48.5c-4,4.57-8.57,9-12,14-1,1.44-1.86,3.46-.41,4.93,2.37,2.39,7.53-1.77,9.49-2.9a111.73,111.73,0,0,0,13.29-9.13c.75-.6-.32-1.66-1.07-1.07a107.86,107.86,0,0,1-8.9,6.41c-2,1.3-5.23,4-7.57,4.42-1.38,1-2.41.23-3.12-2.39l1.14-1.31a29.64,29.64,0,0,1,3.41-3.95l6.82-7.9c.63-.73-.43-1.79-1.06-1.06Z"></path><path class="streger" d="M129.5,53.73c-3,2.58-6.33,5-9,7.93-1.71,1.87-2.63,4.12-1.9,6.61a.75.75,0,0,0,1.45-.4c-1-3.43,2-5.73,4.31-7.72l6.19-5.35c.73-.64-.33-1.69-1.06-1.07Z"></path><path class="streger" d="M120.35,69.1c12.45-5.43,22.42-15.95,32.55-24.68A215.26,215.26,0,0,1,171,30.4c2.94-2,5.93-4,9-5.85s9.6-7.06,13.27-5.52c.89.38,1.28-1.08.4-1.44-2.26-1-3.87-.28-6,.71A107.4,107.4,0,0,0,177,24.67a213.85,213.85,0,0,0-18.31,13c-12.64,10-24,23.55-39.06,30.09-.89.38-.12,1.68.75,1.3Z"></path><path class="streger" d="M193,18.48c-9.19,9-19.15,17.73-26,28.75-.51.82.78,1.58,1.29.76,6.8-10.9,16.7-19.52,25.79-28.45.69-.68-.37-1.74-1.06-1.06Z"></path><path class="streger" d="M167.79,48.32c2.86-3.32,6.92-4.69,11-6a20.85,20.85,0,0,1,6.12-1.44q3.6-.92,6.23,2.57a10.3,10.3,0,0,0-.69,2.78c-.16.94,1.28,1.35,1.45.4.34-2,1.59-4.23.16-6.05-1.24-1.58-4.63-1.42-6.35-1.33-6.24.34-14.75,3.16-19,8-.62.73.43,1.8,1.06,1.06Z"></path><path class="streger" d="M188.23,50.31c-3.84,6.06-7.5,12.17-13.3,16.57-6.71,5.09-15,7.63-23.32,5.65-.94-.22-1.34,1.23-.4,1.45,7.85,1.86,15.74,0,22.45-4.35,7.12-4.62,11.41-11.54,15.87-18.56.52-.82-.78-1.57-1.3-.76Z"></path><path class="streger" d="M190.9,46.11l-2.67,4.2c-.52.82.78,1.57,1.3.76l2.67-4.21c.52-.81-.78-1.57-1.3-.75Z"></path><path class="streger" d="M151.89,72.36c-8.75-7.86,2.86-19.47,8.27-25.39,5.23-5.72,10.72-11.08,14.72-17.78a.75.75,0,0,0-1.29-.75c-5.77,9.64-14.71,16.78-21.44,25.7-4.26,5.64-7.52,13.71-1.32,19.28.71.65,1.78-.41,1.06-1.06Z"></path><path class="streger" d="M99.19,98c-3.73,2.37-6,6.21-8.46,9.76-2.91,4.14-5.76,8.19-7,13.14a.75.75,0,0,0,1.44.4c1.14-4.35,3.48-7.9,6-11.54s4.93-8,8.8-10.46c.81-.52.06-1.82-.76-1.3Z"></path><path class="streger" d="M84.62,122.3c6.55-2.59,11.13-8.32,15.95-13.22Q109.84,99.66,119,90.2q18.75-19.28,37.25-38.79c.67-.7-.39-1.76-1.06-1.06q-17.16,18.09-34.52,36-8.52,8.76-17.07,17.49c-5.68,5.79-11.7,14-19.41,17-.89.35-.5,1.81.4,1.45Z"></path><path class="streger" d="M136,14.4c.59-.52,1.2-1,1.78-1.57a1.71,1.71,0,0,0,.63-1.86,1.38,1.38,0,0,0-1.45-.82c-.76.08-1.17.66-1.8,1-.85.46-.09,1.75.76,1.29a9,9,0,0,0,.88-.64s.29-.14.31-.16,0-.11-.11-.18a.58.58,0,0,1-.16.19c-.57.61-1.27,1.14-1.9,1.69s.34,1.7,1.06,1.06Z"></path><path class="streger" d="M191.28,42.88c.05,1.44.13,3-.93,4.16-.66.7.4,1.76,1.06,1.06,1.36-1.44,1.44-3.34,1.37-5.22,0-1-1.54-1-1.5,0Z"></path><path class="streger" d="M190.34,42.27a6.44,6.44,0,0,1-.66,5.75c-.52.82.78,1.57,1.3.76a7.93,7.93,0,0,0,.81-6.91c-.32-.9-1.77-.51-1.45.4Z"></path><path class="streger" d="M191.05,41.53c1.92,1.68.17,4.56-1,6.1-.59.75.47,1.82,1.06,1.06,1.7-2.17,3.66-5.93,1-8.22-.72-.63-1.79.43-1.06,1.06Z"></path><path class="streger" d="M148.46,70.38c.64,1.59,1.46,3.23,3.06,4,2,1,4.78.5,6.86.28,1-.1,1-1.6,0-1.5a25.58,25.58,0,0,1-4.71.19c-2.11-.17-3-1.6-3.76-3.4-.36-.88-1.81-.5-1.45.4Z"></path><path class="streger" d="M149.75,72.45a12,12,0,0,0,7.61,2.18c1,0,1-1.54,0-1.5-2,.09-4.93-.43-6.54-1.75-.75-.6-1.82.46-1.07,1.07Z"></path><path class="streger" d="M119.47,69.19a.75.75,0,0,0,0-1.5.75.75,0,0,0,0,1.5Z"></path><path class="streger" d="M80.37,69l-1.26,3.53c-.23.66.56,1.14,1.1.85a2.37,2.37,0,0,0,1.05-1.2c.19-.42.32-1.08.71-1.37.78-.55,0-1.86-.75-1.29a2.89,2.89,0,0,0-1,1.29c-.19.44-.31,1-.76,1.28l1.1.84,1.25-3.53c.33-.92-1.12-1.31-1.44-.4Z"></path></g></g></svg>